<?xml version="1.0" encoding="utf-8"?>
<!-- Designed by Vexels.com - 2016 All Rights Reserved - https://vexels.com/terms-and-conditions/  -->

<svg version="1.0" id="Capa_1" xmlns="http://www.w3.org/2000/svg" xmlns:xlink="http://www.w3.org/1999/xlink" x="0px" y="0px"
	 width="1200px" height="1200px" viewBox="0 0 1200 1200" enable-background="new 0 0 1200 1200" xml:space="preserve">
<g>
	<g>
		<g>
			<polygon fill="#071728" points="364.641,146.78 375.38,168.553 399.397,172.044 382.018,188.983 386.111,212.915 
				364.641,201.615 343.153,212.915 347.252,188.983 329.879,172.044 353.895,168.553 			"/>
			<polygon fill="#071728" points="835.358,146.78 846.103,168.553 870.132,172.044 852.747,188.983 856.834,212.915 
				835.358,201.615 813.87,212.915 817.975,188.983 800.595,172.044 824.612,168.553 			"/>
		</g>
		<g>
			<path fill="#071728" d="M598.35,149.263c41.309-0.672,73.87,9.585,87.72,14.815L705,61.618l-61.634,44.818l-44.803-44.818
				l-42.962,45.035l-60.602-37.141l17.347,98.549C522.692,163.107,554.092,150.007,598.35,149.263z"/>
			<path fill="#071728" d="M598.569,162.567c-50.189,0.84-83.155,18.822-83.479,19.002l-0.521-0.959l3.713,21.077
				c89.621-33.613,161.317-2.627,161.317-2.627l4.013-21.69C672.526,173.004,639.899,161.763,598.569,162.567z"/>
		</g>
	</g>
	<g>
		<path fill="#071728" d="M304.365,767.996c45.829,0,82.982-39.984,82.982-89.301c0-49.317-37.152-89.288-82.982-89.288
			c-45.841,0-82.999,39.972-82.999,89.288C221.366,728.013,258.524,767.996,304.365,767.996z M304.365,621.018
			c29.601,0,53.606,25.816,53.606,57.678s-24.005,57.679-53.606,57.679c-29.618,0-53.623-25.817-53.623-57.679
			S274.747,621.018,304.365,621.018z"/>
		<path fill="#071728" d="M304.365,725.301c23.918,0,43.307-20.862,43.307-46.606c0-25.732-19.389-46.593-43.307-46.593
			c-23.93,0-43.318,20.862-43.318,46.593C261.047,704.44,280.436,725.301,304.365,725.301z M269.085,667.671l24.742,7.03
			c0.876-2.663,2.57-4.87,4.774-6.31l-0.087,0.024l-12.164-24.365l17.272-6.358l1.962,29.02l-0.174,0.048
			c2.36,0.24,4.496,1.247,6.205,2.819l-0.111-0.156l18.166-20.982l11.055,15.151l-25.705,11.385l-0.093-0.156
			c0.384,1.235,0.644,2.519,0.644,3.874c0,1.536-0.297,2.988-0.789,4.343l0.051-0.049l24.829,11.565l-11.211,15.319l-17.619-21.365
			c-1.584,1.212-3.473,1.943-5.503,2.147l-3.833,28.827l-18.63-8.134l15.035-22.829c-2.321-1.763-3.992-4.451-4.538-7.581
			l-25.03,7.102L269.085,667.671z"/>
		<path fill="#071728" d="M884.291,632.102c-23.924,0-43.313,20.862-43.313,46.593c0,25.744,19.389,46.606,43.313,46.606
			c23.917,0,43.31-20.862,43.31-46.606C927.601,652.964,908.208,632.102,884.291,632.102z M908.383,709.874l-17.626-21.365
			c-1.583,1.212-3.464,1.943-5.503,2.147l-3.836,28.827l-18.627-8.134l15.037-22.829c-2.318-1.763-3.994-4.451-4.534-7.581
			l-25.036,7.102l0.765-20.37l24.736,7.03c0.87-2.663,2.564-4.87,4.778-6.31l-0.093,0.024l-12.167-24.365l17.272-6.358l1.967,29.02
			l-0.174,0.048c2.366,0.24,4.498,1.247,6.199,2.819l-0.105-0.156l18.165-20.982l11.055,15.151l-25.711,11.385l-0.093-0.156
			c0.39,1.235,0.639,2.519,0.639,3.874c0,1.536-0.285,2.988-0.782,4.343l0.057-0.049l24.829,11.565L908.383,709.874z"/>
		<path fill="#071728" d="M1117.865,667.096h1.161c2.678,0,4.855-2.327,4.855-5.207c0-2.891-2.177-5.218-4.855-5.218h-0.054
			C1120.126,660.174,1119.385,664.18,1117.865,667.096z"/>
		<path fill="#071728" d="M436.094,522.36l0.927-0.648c-0.018,0-0.042-0.012-0.063-0.012L436.094,522.36z"/>
		<path fill="#071728" d="M1109.425,619.83h-0.051c0.042,0.372,0.051,0.648,0.051,0.78V619.83z"/>
		<path fill="#071728" d="M89.089,657.714h-8.116c-2.678,0-4.849,2.327-4.849,5.207c0,2.879,2.171,5.218,4.849,5.218h7.738
			C87.695,664.9,87.614,661.158,89.089,657.714z"/>
		<path fill="#071728" d="M95.537,799.151c0,0,55.996,61.973,153.946-1.26c15.154-9.729,4.675-68.031-34.984-38.4
			C174.836,789.122,170.184,798.335,95.537,799.151z"/>
		<path fill="#071728" d="M134.03,898.024c46.644-8.565,127.116-45.85,165.609-76.944c-7-14.252-26.83-39.108-26.83-39.108
			s16.129,62.669-106.122,62.597c0,0-69.983-20.694-95.637,10.053C45.398,885.392,87.389,906.565,134.03,898.024z"/>
		<path fill="#071728" d="M929.376,955.318c-67.629-21.869-166.769-38.1-206.426-35.797c0,0-1.16,9.477-2.327,21.701
			c67.653-20.55,172.6,45.37,172.6,45.37c54.817,46.834,122.47,90.596,142.288,68.943
			C1055.34,1033.858,997.029,977.188,929.376,955.318z"/>
		<path fill="#071728" d="M795.254,959.541c-62.969-13.28-88.62-4.414-76.969,26.644c11.676,31.023,25.669,30.795,68.814,45.214
			c43.142,14.419,127.121,43.067,156.261,106.983c-1.149-58.914,4.678-88.545,4.678-88.545S858.238,972.833,795.254,959.541z"/>
		<path fill="#071728" d="M1130.713,945.829c10.97-28.503,6.94-51.644-11.781-76.824c-36.816-49.461-119.81-85.066-119.81-85.066
			c-26.104-9.849-52.766-17.875-79.728-24.425c28.263-14.239,47.877-45.022,47.877-80.819c0-18.402-5.179-35.497-14.059-49.701
			c9.645,12.716,16.471,28.888,19.923,40.476c4.844,16.291,7.561,28.347,21.494,28.347c13.934,0,30.9-1.308,56.953-1.308
			c26.032,0,30.588-4.559,37.864-8.793c7.257-4.247,25.735-17.275,25.735-17.275c0.996-0.672,1.937-1.872,2.684-3.347H986.757
			c-2.678,0-4.841-2.327-4.841-5.207c0-2.891,2.163-5.218,4.841-5.218h132.214c-1.094-3.347-3.932-6.202-9.546-7.078h-61.691
			l12.11-29.763h49.53c-0.243-2.795-1.908-11.708-12.671-21.413c-13.016-11.72-116.61-72.662-133.27-80.819
			c-4.843,3.263-10.593,4.247-24.538-2.603c-13.927-6.838-89.948-41.387-112.369-48.885c-22.403-7.485-23.012-18.57-22.403-23.129
			c-92.089-17.934-162.664-21.51-205.68-19.554c-39.294,1.787-42.506,8.265-42.772,9.381h-0.006c-0.006,0.024,0,0.024-0.006,0.048
			c-0.018,0.06-0.024,0.132-0.024,0.132l-2.894,2.171c2.187,1.728,5.255,4.187,7.024,5.71c0.725,0.624,1.694,1.524,1.727,2.123
			c0.012,0.276-0.075,1.824-3.257,5.326c-7.377,8.122-57.846,63.544-64.882,70.803l-0.324,0.324
			c-6.142,6.322-8.676,8.949-18.216,8.949c-1.005,0-2.09-0.024-3.242-0.096c-9.096-0.504-23.525-5.446-31.742-8.517l-2.807,1.931
			l-0.933,0.648l-4.838,3.599c0,0-37.959,7.822-69.062,13.484c-100.892,0.803-162.982,8.493-189.308,12.728
			c-10.521,24.772-19.827,43.966-23.876,52.088l-7.675-1.176c2.744-5.422,11.936-23.933,22.847-49.221
			c-19.941,5.734-27.178,31.491-28.146,55.519c-34.939,17.167-38.772,24.124-40.593,41.291c-3.218,1.919-5.231,4.391-6.349,7.042
			H199.5c2.687,0,4.844,2.327,4.844,5.207c0,2.879-2.156,5.218-4.844,5.218H88.711c1.461,4.63,4.79,8.17,8.143,8.17
			c3.44,14.335,15.547,23.465,15.547,23.465l-5.845,10.101c0,0,55.722,0,76.62,0c20.9,0,25.141-12.056,28.173-28.683
			c3.029-16.603,7.875-42.035,14.849-54.415c6.958-12.38,32.71-40.08,70.268-40.08c37.557,0,55.12,6.19,72.988,25.42
			c17.869,19.218,24.544,54.739,27.565,70.706c3.035,15.967,6.061,23.465,19.698,23.465h353.771
			c13.334,0,14.54-11.072,16.668-22.481c2.118-11.409,8.479-35.197,18.178-53.12c7.621-14.108,17.746-26.164,39.711-30.674
			c-26.035,15.079-43.753,44.65-43.753,78.683c0,25.325,9.858,48.154,25.612,64.409c-211.486-24.401-425.47,34.957-534.684,105.735
			C154.037,938.416,80.335,914.675,71.403,910.74c-6.472-2.855,19.197,26.584,45.337,60.87
			c21.476,0.803,68.292-3.251,147.785-37.369c2.894-1.236,5.689,25.888,33.563,32.858c-42.911,20.91-92.267,43.498-148.047,47.685
			c-0.975,0.06-1.862,0.096-2.756,0.144c3.389,5.398,6.457,10.629,9.054,15.571c25.471,48.561,59.457,41.327,130.226,10.509
			c328.423-176.106,498.284-139.169,597.377-117.9c99.086,21.293,184.032,77.964,172.69,126.861
			c20.31-23.033,36.681-42.875,49.227-60.497c-35.575-64.588-117.285-100.793-117.285-100.793l21.459-39.3
			C1074.843,878.386,1113.654,911.052,1130.713,945.829z M102.114,648.069c0,0,2.825-21.725,17.77-21.725h43.202
			c6.67,0,11.501,0.864,14.14,6.946c2.628,6.094,6.064,14.779,6.064,14.779H102.114z M514.957,531.333
			c14.633-16.543,49.776-56.238,57.327-64.36c1.545-1.655,2.819-3.275,3.926-4.726c3.929-5.014,7.036-8.973,20.394-10.593
			l-28.332,80.963C544.492,532.065,525.541,531.597,514.957,531.333z M575.974,532.809L604.6,451.03
			c2.432-0.096,5.099-0.156,8.067-0.156c4.67,0,10.017,0.144,15.868,0.432c46.531,2.363,86.98,6.898,121.139,13.592l-25.21,71.042
			C673.687,535.04,618.312,533.805,575.974,532.809z M829.453,537.175c-21.378,0-51.279-0.348-84.361-0.888l23.855-67.239
			c25.459,6.046,46.848,13.46,63.988,22.253c50.411,25.828,51.29,35.125,50.948,36.721
			C883.703,528.958,880.503,537.175,829.453,537.175z M452.517,943.022c-0.69,0.828-1.536,1.644-2.534,2.435
			c-0.986,0.779-2.054,1.547-3.2,2.315c-1.139,0.744-2.117,1.32-2.936,1.728c-2.657,1.343-5.126,2.099-7.434,2.291
			c-2.309,0.192-3.59-0.528-3.827-2.171c-5.512-37.224-9.897-74.701-13.148-112.405c-0.141-1.668,1.088-3.563,3.704-5.722
			c2.615-2.123,5.57-3.911,8.832-5.302c1.005-0.42,2.216-0.852,3.638-1.26c1.41-0.408,2.762-0.732,4.049-0.959
			c1.281-0.216,2.393-0.276,3.323-0.18c0.932,0.108,1.454,0.492,1.56,1.187c1.733,38.784,4.694,77.4,8.838,115.765
			C453.515,941.427,453.237,942.183,452.517,943.022z M572.726,803.841c-4.28,32.306-7.719,64.636-10.311,96.966
			c-0.105,0.732-0.591,1.452-1.44,2.196c-0.84,0.744-1.883,1.439-3.137,2.135c-1.23,0.672-2.523,1.296-3.875,1.835
			c-1.349,0.552-2.579,0.972-3.71,1.296c-1.122,0.312-2.303,0.552-3.575,0.672c-1.257,0.131-2.429,0.168-3.503,0.155
			c-1.083-0.024-2-0.228-2.771-0.576c-0.783-0.36-1.182-0.864-1.206-1.56c1.386-31.958,3.614-63.941,6.664-95.934
			c-0.042-0.096-0.384-0.564-1.023-1.392c-0.636-0.816-1.182-1.416-1.623-1.752c-1.722-2.003-4.777-2.963-9.147-2.867
			c-4.361,0.108-9.307,0.936-14.801,2.52c-6.664,1.907-11.906,4.103-15.727,6.478c-3.817,2.363-7.054,5.338-9.681,8.937
			c-0.534,0.419-0.927,1.02-1.188,1.823c-0.255,0.792-0.459,1.32-0.609,1.608c-0.042,7.713-0.03,15.403,0.027,23.105
			c-0.039,1.332,0.489,2.291,1.596,2.915c1.109,0.636,2.522,1.031,4.252,1.211c1.722,0.18,3.671,0.18,5.839-0.012
			c2.168-0.192,4.34-0.516,6.52-0.972c2.336-0.396,4.652-0.876,6.919-1.392c2.273-0.528,4.28-0.876,6.019-1.044
			c1.727-0.156,3.119-0.012,4.159,0.432c1.038,0.456,1.479,1.464,1.338,3.035c0.048,1.967-1.23,3.827-3.797,5.602
			c-2.576,1.763-5.842,3.263-9.803,4.51c-4.562,1.464-9.082,2.639-13.571,3.527c-4.498,0.888-8.682,1.451-12.584,1.667
			c-3.893,0.216-7.402,0.072-10.551-0.467c-3.143-0.552-5.677-1.512-7.615-2.915c-0.741-0.552-1.541-1.224-2.429-2.04
			c-0.881-0.792-1.359-1.655-1.448-2.579c-0.327-8.913-0.588-17.826-0.78-26.752c-0.081-0.923,0.321-2.255,1.179-3.959
			c0.87-1.692,1.653-3.155,2.343-4.366c4.489-6.682,11.055-12.692,19.719-17.862c8.659-5.159,18.819-9.465,30.396-12.728
			c5.719-1.596,11.228-2.783,16.482-3.551c5.267-0.768,10.086-1.056,14.453-0.864c4.373,0.18,8.196,0.803,11.472,1.871
			c3.29,1.068,5.824,2.615,7.621,4.631c0.639,0.924,1.364,1.944,2.165,3.083C572.78,801.622,573.029,802.75,572.726,803.841z
			 M707.006,792.697c-1.757,5.41-5.308,10.749-10.532,16.099c-5.218,5.338-11.757,10.437-19.503,15.415
			c-17.521,11.085-34.189,22.829-49.983,35.149c-2.123,1.655-4.291,3.539-6.514,5.626c-2.225,2.099-4.255,4.247-6.094,6.418
			c-1.857,2.171-3.386,4.319-4.595,6.406c-1.217,2.075-1.946,3.935-2.219,5.578c21.47-3.827,43.304-6.586,65.419-8.205
			c2.807-0.204,4.774,0.372,5.887,1.703c1.101,1.332,1.434,2.567,1.025,3.719c-0.155,1.128-1.2,2.411-3.086,3.827
			c-1.871,1.416-4.25,2.22-7.132,2.448c-27.34,2.195-54.226,6.13-80.502,11.744c-1.721,0.36-3.332,0.24-4.841-0.408
			c-1.508-0.636-2.39-1.32-2.645-2.075c-0.063-0.204-0.051-0.744,0.039-1.56c0.099-0.816,0.111-1.32,0.048-1.548
			c0.702-5.338,2.906-11.109,6.727-17.335c3.827-6.226,9.111-12.212,15.943-17.85c15.394-12.908,31.673-25.264,48.828-36.996
			c6.601-4.343,12.116-8.842,16.501-13.532c4.385-4.702,7.291-9.249,8.646-13.723c1.182-3.995-0.042-7.09-3.713-9.213
			c-3.677-2.136-10.704-2.891-20.97-1.956c-6.52,0.588-11.657,1.56-15.421,2.831c-3.758,1.272-6.664,2.736-8.73,4.343
			c-2.069,1.619-3.694,3.251-4.895,4.882c-1.205,1.62-2.405,3.203-3.62,4.739c-1.212,1.536-2.84,2.855-4.858,3.995
			c-2.024,1.163-4.955,2.015-8.821,2.639c-3.457,0.539-6.202,0.612-8.259,0.168c-2.042-0.432-3.602-1.2-4.682-2.267
			c-0.063-0.204-0.051-0.54,0.066-1.032c0.12-0.468,0.138-0.828,0.069-1.032c0.621-3.527,2.609-7.018,6.031-10.424
			c3.41-3.407,7.864-6.574,13.352-9.405c5.498-2.831,11.922-5.302,19.272-7.294c7.354-1.991,15.269-3.371,23.732-4.091
			c18.906-1.607,32.774,0.24,41.153,4.654C706.536,779.549,709.397,785.475,707.006,792.697z M841.053,787.167
			c-0.291,0.18-0.416,0.384-0.416,0.612c0,0.12-0.15,0.252-0.423,0.432c-0.725,0.792-1.601,1.848-2.663,3.191
			c-1.068,1.356-2.087,2.663-3.068,3.899c-0.98,1.26-1.856,2.387-2.621,3.383c-0.771,1.02-1.218,1.571-1.362,1.655
			c-24.928,19.602-48.249,40.379-69.852,62.141c-0.249,0.216-0.755,0.78-1.532,1.728c-0.782,0.959-1.617,2.015-2.504,3.179
			c-0.894,1.164-1.746,2.303-2.564,3.419c-0.825,1.115-1.467,1.991-1.931,2.639c-0.111,0.324-0.36,0.864-0.759,1.619
			c-0.402,0.756-0.854,1.572-1.37,2.435c-0.51,0.852-0.996,1.692-1.443,2.495c-0.453,0.816-0.744,1.38-0.837,1.727
			c-1.038,1.488-2.894,2.543-5.554,3.167c-2.675,0.624-5.669,0.852-8.985,0.696c-2.579-0.12-4.847-0.516-6.808-1.2
			c-1.943-0.696-3.113-1.631-3.467-2.891c-0.029-0.336,0.144-1.032,0.549-2.087c0.402-1.056,0.594-1.739,0.564-2.075
			c0.318-0.552,0.684-1.32,1.088-2.316c0.408-1.007,0.795-1.547,1.161-1.644c0.417-0.888,1.113-2.123,2.105-3.718
			c0.981-1.583,1.994-3.167,3.056-4.751c1.062-1.571,2.013-3.023,2.855-4.33c0.833-1.296,1.362-2.123,1.598-2.448
			c19.128-20.513,39.705-40.223,61.685-59.034c0.135-0.084,0.606-0.576,1.404-1.427c0.795-0.864,1.65-1.848,2.594-2.964
			c0.915-1.127,1.851-2.243,2.795-3.382c0.921-1.104,1.739-2.016,2.417-2.711c0.267-0.192,0.396-0.516,0.378-0.984
			c-0.024-0.564,0.093-0.935,0.378-1.128c-26.104-3.659-52.127-5.902-77.964-6.79c-2.981-0.096-5.146-0.888-6.52-2.387
			c-1.368-1.5-1.913-2.687-1.626-3.575c0.519-1.224,1.992-2.459,4.445-3.683c2.447-1.211,5.416-1.775,8.883-1.631
			c32.579,1.319,65.44,4.787,98.357,10.461c3.056,0.528,5.213,1.44,6.472,2.699c1.248,1.247,1.89,2.459,1.89,3.599
			C841.464,785.871,841.338,786.542,841.053,787.167z M830.673,678.696c0-31.862,23.998-57.678,53.618-57.678
			c29.601,0,53.605,25.816,53.605,57.678s-24.005,57.679-53.605,57.679C854.672,736.374,830.673,710.558,830.673,678.696z"/>
	</g>
	<g>
		<path fill="#071728" d="M221.789,342.547c-4.13,1.091-7.657,1.548-10.602,1.332c-2.939-0.192-4.205-1.488-3.782-3.874
			c0.477-2.652,2.198-4.775,5.155-6.334c2.954-1.548,6.439-3.035,10.446-4.475c4.004-1.416,8.104-3.035,12.29-4.847
			s7.824-4.342,10.938-7.606c0.875-0.84,1.757-1.931,2.645-3.263c0.888-1.344,1.392-2.34,1.503-2.999
			c1.622-7.882,3.293-15.787,5.011-23.669c0.324-1.583-0.06-2.927-1.143-4.055c-1.091-1.128-2.651-1.967-4.717-2.555
			c-2.064-0.576-4.505-0.84-7.318-0.792c-2.819,0.048-5.788,0.456-8.92,1.224c-9.906,2.435-19.794,4.99-29.655,7.63
			c-7.105,39.504-12.956,78.971-17.577,118.331c-0.111,0.924-0.609,1.871-1.485,2.832c-0.876,0.983-1.967,1.919-3.248,2.819
			c-1.287,0.911-2.732,1.739-4.322,2.495c-1.596,0.756-3.167,1.38-4.709,1.86c-1.068,0.348-2.234,0.623-3.473,0.816
			c-1.235,0.228-2.414,0.336-3.515,0.372c-1.104,0.036-2.031-0.084-2.774-0.348c-0.747-0.276-1.112-0.792-1.095-1.559
			c4.291-43.091,10.044-86.338,17.292-129.644c0.03-0.384,0.396-0.923,1.116-1.631c0.714-0.708,1.559-1.427,2.558-2.147
			c0.996-0.732,2.045-1.367,3.155-1.931c1.113-0.564,2.126-0.972,3.038-1.224c16.732-4.631,33.521-8.961,50.357-13.016
			c5.662-1.344,11.27-2.028,16.807-2.051c5.54-0.012,10.428,0.552,14.681,1.668c4.237,1.128,7.509,2.795,9.825,4.978
			c2.312,2.184,3.083,4.739,2.342,7.618c-2.036,9.021-4.001,18.03-5.911,27.052c-0.354,1.451-1.056,2.939-2.114,4.498
			c-1.068,1.548-2.228,3.071-3.488,4.607c-5.056,6.01-11.93,11.432-20.594,16.351C241.838,335.937,232.286,339.764,221.789,342.547z
			"/>
		<path fill="#071728" d="M274.63,362.905c0.036-0.384,0.141-1.056,0.303-2.04c0.168-0.972,0.381-2.015,0.636-3.143
			c0.267-1.128,0.519-2.171,0.738-3.155c0.231-1.007,0.435-1.703,0.603-2.111c0.285-2.184,0.639-4.643,1.074-7.354
			c0.435-2.723,1.293-5.29,2.603-7.689c1.392-3.179,3.584-6.346,6.601-9.489c3.015-3.155,6.67-6.106,10.995-8.854
			c4.309-2.759,9.129-5.29,14.425-7.581c5.306-2.292,10.926-4.163,16.876-5.638c5.608-1.02,11.241-2.028,16.867-2.999
			c7.926-1.367,15.955-2.591,24.049-3.659c8.103-1.068,15.7-1.595,22.754-1.595c7.057,0,13.262,0.743,18.579,2.219
			c5.326,1.464,9.183,4.103,11.567,7.845c1.461,2.543,1.523,5.291,0.213,8.254c-0.534,2.027-2.064,3.935-4.589,5.71
			c-2.534,1.787-5.995,2.963-10.398,3.538c-4.522,0.6-7.458,0.48-8.793-0.384c-1.338-0.864-2.144-2.039-2.418-3.538
			c-0.267-1.488-0.416-3.047-0.447-4.631c-0.024-1.596-0.945-2.819-2.744-3.671c-1.908-0.72-4.301-1.176-7.186-1.368
			c-2.882-0.192-6.07-0.216-9.555-0.072c-3.482,0.168-7.042,0.48-10.685,0.924c-3.641,0.456-7.174,0.972-10.602,1.536
			c-4.064,0.696-8.119,1.392-12.179,2.099c-4.565,0.804-9.12,1.631-13.679,2.459c-7.129,1.824-12.992,4.451-17.55,7.834
			c-4.565,3.395-7.198,6.85-7.912,10.353c-1.515,6.598-2.993,13.16-4.43,19.758c-0.956,4.055,0.747,6.862,5.051,8.445
			c4.298,1.596,10.116,1.632,17.464,0.168c6.622-1.296,12.2-3.179,16.759-5.699c4.564-2.507,8.235-5.59,11.034-9.297
			c0.335-0.312,0.728-0.78,1.193-1.416c0.459-0.636,0.677-1.008,0.666-1.128c1.862-7.678,3.77-15.343,5.731-23.009
			c0.174-0.516,0.783-1.152,1.827-1.871c1.05-0.732,2.267-1.391,3.659-1.979c1.391-0.6,2.801-1.128,4.223-1.608
			c1.415-0.48,2.621-0.792,3.637-0.947c1.392-0.216,2.865-0.36,4.406-0.408c1.551-0.048,2.924,0.049,4.124,0.3
			c1.206,0.252,2.166,0.636,2.883,1.139c0.719,0.516,0.956,1.212,0.708,2.112c-2.082,7.75-4.106,15.499-6.076,23.261
			c-0.521,1.559-1.502,3.239-2.924,5.075c-1.422,1.823-2.951,3.551-4.589,5.158c-5.884,5.89-12.995,10.749-21.365,14.659
			c-8.38,3.911-17.881,6.898-28.563,9.033c-14.933,3.011-26.41,3.215-34.589,0.372C277.425,376.005,273.718,370.727,274.63,362.905z
			"/>
		<path fill="#071728" d="M454.598,342.415c-0.021-0.24,0.06-0.671,0.249-1.308c0.309-0.636,0.714-1.536,1.236-2.687
			c0.516-1.152,1.035-2.243,1.572-3.275c0.521-1.031,0.969-1.955,1.329-2.783c0.36-0.828,0.54-1.308,0.528-1.427
			c5.65-8.254,11.402-16.447,17.26-24.64c-0.126,0.012-0.243,0.024-0.369,0.036c-2.681,0.216-5.401,0.612-8.173,1.164
			c-2.783,0.552-5.494,0.959-8.167,1.2c-3.299,0.312-6.334,0.516-9.075,0.624c-2.756,0.072-5.615,0.036-8.589-0.132
			c-0.258,0.024-0.768,0.024-1.539-0.012c-0.783-0.036-1.623-0.108-2.528-0.18c-0.912-0.084-1.793-0.18-2.634-0.263
			c-0.845-0.084-1.34-0.132-1.466-0.108c-0.255,0.024-0.633,0.12-1.118,0.3c-3.042,9.585-5.998,19.182-8.881,28.791
			c-0.284,0.768-0.95,1.524-2,2.255c-1.038,0.744-2.292,1.392-3.737,1.943c-1.449,0.552-2.927,1.02-4.466,1.392
			c-1.523,0.396-2.912,0.66-4.145,0.827c-1.241,0.156-2.564,0.252-3.956,0.252c-1.386,0.012-2.663-0.108-3.83-0.311
			c-1.163-0.204-2.069-0.576-2.714-1.092c-0.642-0.528-0.827-1.176-0.555-1.943c4.058-14.516,8.299-29.019,12.713-43.498
			c0.288-0.768,0.978-1.5,2.069-2.195c1.086-0.684,2.309-1.296,3.683-1.824c1.367-0.54,2.819-0.996,4.333-1.356
			c1.524-0.36,2.864-0.624,4.025-0.744c2.963-0.348,5.248-0.3,6.859,0.12c1.614,0.444,3.428,0.9,5.428,1.427
			c3.638,1.188,7.719,2.04,12.245,2.567c4.517,0.54,9.471,0.54,14.852,0.06c7.824-0.696,15.29-2.483,22.457-5.326
			c1.877-0.756,3.572-1.451,5.08-2.099c1.508-0.66,2.993-1.284,4.436-1.871c1.464-0.588,2.948-1.056,4.484-1.392
			c1.532-0.348,3.335-0.576,5.401-0.695c4.133-0.252,7.075,0.156,8.808,1.211c1.746,1.068,2.273,2.531,1.602,4.391
			c0.012,0.252-0.087,0.623-0.327,1.115c-0.237,0.504-0.342,0.816-0.33,0.936c-8.031,8.781-15.907,17.635-23.645,26.547
			c-0.231,0.276-0.776,0.996-1.634,2.231c-0.864,1.224-1.805,2.603-2.825,4.139c-1.02,1.536-2.013,3.083-2.964,4.619
			s-1.643,2.699-2.084,3.455c0.012,0.12-0.399,0.983-1.212,2.579c-0.81,1.583-1.367,2.831-1.671,3.707
			c0,0.048,0.006,0.12,0.006,0.18c-0.057,0-0.114,0.012-0.18,0.012c-0.051,0.06-0.114,0.132-0.168,0.204
			c-0.51,1.499-0.51,2.603-0.015,3.287c0.498,0.696,2.225,0.912,5.207,0.684c6.079-0.48,11.582-1.86,16.552-4.139
			c2.174-0.983,4.235-2.039,6.166-3.131c1.932-1.092,3.62-2.292,5.044-3.599c1.305-1.176,2.34-2.387,3.086-3.659
			c0.747-1.247,1.647-2.459,2.727-3.611c1.067-1.163,2.591-2.123,4.57-2.879c1.983-0.78,4.859-1.26,8.635-1.427
			c4.025-0.18,6.826,0.372,8.388,1.655c1.566,1.271,1.994,2.843,1.314,4.691c-1.251,3.455-3.872,6.802-7.846,10.005
			c-3.979,3.227-8.745,6.142-14.308,8.745c-5.567,2.615-11.691,4.823-18.367,6.61c-6.688,1.799-13.397,2.975-20.153,3.527
			c-10.317,0.852-17.752,0.132-22.34-2.292C454.343,351.581,452.877,347.73,454.598,342.415z"/>
		<path fill="#071728" d="M517.045,347.046c0.081-0.612,0.51-1.308,1.281-2.075c0.759-0.779,1.716-1.511,2.864-2.183
			c1.142-0.66,2.384-1.236,3.737-1.728c1.335-0.516,2.702-0.792,4.07-0.851c14.905-0.72,29.817-1.188,44.734-1.416
			c0.126,0,0.561-0.048,1.305-0.12c0.741-0.072,1.617-0.18,2.609-0.312c0.999-0.132,1.983-0.288,2.987-0.492
			c0.981-0.18,1.793-0.348,2.417-0.48c5.588-0.912,9.999-2.459,13.253-4.727c3.248-2.243,5.446-4.57,6.583-6.993
			c0.894-2.184,0.365-4.391-1.583-6.574c-1.943-2.207-4.529-4.319-7.753-6.31c-3.236-2.015-6.769-3.839-10.59-5.518
			c-3.842-1.656-7.09-3.011-9.792-4.067c-0.267-0.12-0.84-0.348-1.733-0.696c-0.906-0.36-1.833-0.696-2.795-1.044
			c-0.962-0.36-1.926-0.696-2.894-1.044c-0.962-0.348-1.712-0.623-2.228-0.864c-1.026-0.216-1.478-0.3-1.343-0.252
			c0.126,0.072-0.315,0.108-1.347,0.132c-3.979,9.645-7.875,19.326-11.693,29.007c-0.351,0.732-1.083,1.404-2.186,1.992
			c-1.107,0.588-2.4,1.055-3.896,1.415c-1.484,0.36-2.975,0.66-4.466,0.912c-1.491,0.228-2.795,0.384-3.925,0.432
			c-3.236,0.144-6.011-0.216-8.308-1.08c-2.294-0.852-3.113-2.219-2.462-4.079c5.102-13.363,10.356-26.679,15.781-39.983
			c0.701-1.728,2.648-3.144,5.851-4.235c3.194-1.08,6.349-1.668,9.453-1.751c1.032-0.024,2.063-0.06,3.101-0.084
			c0.779-0.012,1.682,0.072,2.72,0.3c5.081,1.332,10.539,2.867,16.363,4.631c5.821,1.739,11.492,3.683,17.014,5.794
			c5.527,2.123,10.707,4.462,15.538,7.006c4.825,2.531,8.869,5.266,12.122,8.194c3.248,2.903,5.498,5.998,6.751,9.249
			c1.247,3.251,1.077,6.622-0.501,10.113c-0.405,1.212-1.131,2.351-2.15,3.443c-1.02,1.068-1.856,2.207-2.492,3.407
			c-0.006,0.072-0.006,0.12-0.006,0.18c2.621-0.552,5.23-1.2,7.81-1.919c2.57-0.732,5.011-1.62,7.297-2.639
			c1.775-0.792,3.092-1.728,3.938-2.795c0.851-1.08,1.799-2.063,2.831-3.011c1.044-0.936,2.522-1.715,4.424-2.316
			c1.922-0.588,4.831-0.816,8.73-0.648c2.522,0.108,4.777,0.552,6.757,1.32c1.977,0.755,3.056,1.811,3.236,3.167
			c-0.012,0.24-0.156,0.696-0.441,1.344c-0.285,0.66-0.564,1.115-0.819,1.332c-1.949,3.803-5.521,6.934-10.671,9.465
			s-11.106,4.583-17.839,6.202c-6.757,1.632-13.862,2.927-21.351,3.899c-7.498,0.996-14.564,1.739-21.222,2.219
			c-1.356,0.12-3.08,0.264-5.174,0.384c-2.105,0.132-4.231,0.264-6.379,0.408c-2.163,0.144-4.07,0.252-5.729,0.336
			c-1.67,0.084-2.681,0.12-3.059,0.12c-17.248,0.263-34.495,0.827-51.731,1.715c-2.837,0.155-4.843-0.468-6.037-1.86
			C516.817,349.613,516.493,348.294,517.045,347.046z"/>
		<path fill="#071728" d="M724.035,287.017c7.603,0.66,14.38,1.883,20.322,3.647c5.932,1.764,10.704,3.959,14.299,6.562
			c3.608,2.603,5.923,5.518,6.973,8.697c1.05,3.179,0.51,6.562-1.566,10.101c-1.209,1.583-3.248,2.879-6.11,3.898
			c-2.864,1.032-6.373,1.308-10.523,0.876c-3.782-0.408-6.322-1.115-7.621-2.16c-1.302-1.055-2.072-2.279-2.315-3.718
			c-0.243-1.416-0.261-2.951-0.03-4.583c0.222-1.632-0.132-3.191-1.088-4.691c-0.948-1.488-2.808-2.843-5.597-4.007
			c-2.792-1.176-7.197-2.04-13.214-2.532c-3.062-0.264-6.286-0.3-9.639-0.131c-3.362,0.168-6.541,0.599-9.546,1.308
			c-3.002,0.708-5.602,1.631-7.783,2.759c-2.186,1.139-3.653,2.555-4.39,4.21c-4.043,7.618-8.031,15.235-11.964,22.889
			c-0.701,1.308-0.738,2.579-0.117,3.827c0.621,1.26,1.712,2.411,3.272,3.467c1.566,1.08,3.479,1.979,5.74,2.735
			c2.255,0.744,4.693,1.188,7.297,1.368c15.271,1.02,30.534,2.279,45.765,3.79c2.481,0.24,4.853,0.276,7.132,0.084
			c2.273-0.18,4.675-0.444,7.227-0.792c4.46-0.612,7.759-1.727,9.906-3.383c2.144-1.655,4.07-3.251,5.777-4.834
			c1.703-1.559,3.734-2.879,6.088-3.935c2.354-1.068,5.98-1.295,10.862-0.648c4.004,0.528,6.73,1.572,8.179,3.119
			c1.439,1.548,1.658,3.179,0.65,4.883c-3.236,5.086-8.898,9.093-16.929,12.116c-8.035,3.023-17.662,4.858-28.935,5.615
			c-2.243,0.132-4.553,0.216-6.913,0.287c-2.366,0.06-4.651-0.012-6.856-0.228c-17.323-1.679-34.663-3.047-52.022-4.091
			c-4.919-0.288-9.588-1.176-14.024-2.687c-4.438-1.512-8.224-3.335-11.351-5.542c-3.137-2.195-5.438-4.571-6.907-7.126
			c-1.455-2.543-1.659-5.014-0.567-7.414c4.33-8.901,8.727-17.802,13.205-26.68c0.285-0.599,1.091-1.499,2.423-2.723
			c1.335-1.224,2.402-2.112,3.197-2.687c6.769-4.787,15.242-8.206,25.396-10.161C701.89,286.537,712.683,286.033,724.035,287.017z"
			/>
		<path fill="#071728" d="M818.59,311.069c-10.427,16.123-20.564,32.342-30.44,48.681c-0.324,0.564-1.137,1.032-2.441,1.416
			c-1.305,0.372-2.738,0.636-4.315,0.792c-1.583,0.156-3.185,0.263-4.808,0.3c-1.631,0.024-2.981-0.012-4.094-0.156
			c-1.098-0.144-2.279-0.384-3.545-0.72c-1.266-0.336-2.429-0.755-3.491-1.26c-1.055-0.491-1.832-1.044-2.321-1.655
			c-0.486-0.599-0.497-1.26-0.045-1.931c21.509-37.081,44.395-73.681,68.655-109.742c0.372-0.672,1.196-1.188,2.489-1.548
			c1.274-0.348,2.714-0.588,4.298-0.708c1.59-0.096,3.194-0.12,4.825-0.036c1.623,0.072,3.032,0.216,4.229,0.408
			c1.467,0.252,2.933,0.624,4.43,1.128c1.478,0.504,2.795,1.02,3.926,1.596c1.131,0.564,1.979,1.187,2.534,1.907
			c0.569,0.72,0.644,1.416,0.26,2.088c-11.075,15.787-21.893,31.694-32.438,47.709c10.766,1.691,21.524,3.514,32.252,5.458
			c0.129,0.024,0.507,0.12,1.136,0.312c0.621,0.168,1.371,0.384,2.252,0.684c0.864,0.276,1.71,0.552,2.516,0.828
			c0.801,0.276,1.467,0.456,1.977,0.552c7.458,2.508,13.699,5.554,18.735,9.117c5.021,3.551,7.683,7.426,8.001,11.601
			c-0.126,0.588-0.174,2.075-0.138,4.439c-7.515,10.305-14.917,20.657-22.208,31.07c-0.009,0.744-0.027,1.476-0.051,2.22
			c0.975,0.192,1.97,0.204,2.957,0.024c0.999-0.18,1.694-0.336,2.111-0.504c4.019-0.935,7.21-2.135,9.564-3.634
			c1.347-0.972,2.615-2.027,3.758-3.227c1.142-1.188,2.501-2.244,4.048-3.155c1.542-0.911,3.491-1.559,5.839-1.919
			c2.346-0.384,5.315-0.156,8.904,0.636c4.331,0.96,6.994,2.292,7.975,3.947c0.975,1.668,0.888,3.371-0.291,5.086
			c-1.827,2.327-4.508,4.595-8.017,6.79c-3.53,2.195-7.635,4.03-12.353,5.506c-4.726,1.463-9.876,2.423-15.478,2.879
			c-5.615,0.468-11.489,0.084-17.682-1.104c-8.023-1.547-13.421-3.983-16.204-7.377c-2.795-3.419-3.137-6.838-1.011-10.293
			c6.739-10.041,13.583-20.046,20.544-30.003c0.741-1.212,0.759-2.52,0.045-3.887c-0.714-1.38-1.937-2.699-3.677-3.935
			c-1.722-1.248-3.782-2.363-6.148-3.347c-2.375-0.996-4.828-1.715-7.363-2.147C838.408,314.224,828.502,312.581,818.59,311.069z"/>
		<path fill="#071728" d="M979.235,332.087c7.687,2.063,14.315,4.535,19.887,7.39c5.557,2.843,9.825,5.878,12.824,9.046
			c3.005,3.167,4.664,6.418,5.005,9.765c0.354,3.347-0.837,6.586-3.521,9.717c-2.459,2.819-5.968,5.135-10.491,6.958
			c-4.532,1.847-9.732,3.119-15.602,3.85c-5.893,0.732-12.191,0.876-18.936,0.444c-6.739-0.444-13.57-1.559-20.52-3.323
			c-2.321-0.6-4.64-1.188-6.967-1.752c-2.441-1.115-4.013-2.351-4.726-3.719c-0.702-1.356-0.597-2.603,0.348-3.766
			c0.987-1.38,2.459-2.244,4.433-2.567c1.977-0.324,4.223-0.396,6.715-0.204c2.507,0.204,5.099,0.576,7.777,1.152
			c2.663,0.564,5.153,1.02,7.42,1.367c5.713,0.744,10.8,0.492,15.259-0.803c4.454-1.296,7.695-2.927,9.72-4.882
			c2.741-3.144,2.498-6.406-0.771-9.777c-3.29-3.383-8.748-6.118-16.381-8.146c-2.996-0.792-6.175-1.403-9.54-1.848
			c-3.35-0.42-6.586-0.54-9.678-0.384c-3.11,0.168-5.842,0.612-8.208,1.344c-2.354,0.732-4.046,1.871-5.081,3.371
			c-5.341,6.778-10.617,13.592-15.844,20.43c-0.939,1.152-1.187,2.411-0.794,3.742c0.396,1.344,1.271,2.676,2.639,3.995
			c1.371,1.332,3.104,2.555,5.21,3.683c2.117,1.152,4.448,2.028,6.994,2.652c14.95,3.707,29.862,7.654,44.731,11.852
			c2.408,0.671,4.763,1.128,7.054,1.343c2.297,0.216,4.739,0.384,7.318,0.492c4.253,0.252,7.576-0.228,9.984-1.403
			c2.399-1.188,4.654-2.411,6.76-3.683c2.105-1.26,4.463-2.22,7.066-2.879c2.591-0.672,6.211-0.288,10.838,1.188
			c3.875,1.224,6.421,2.747,7.576,4.522c1.152,1.8,1.089,3.431-0.192,4.93c-4.112,4.427-10.446,7.354-18.936,8.902
			c-8.515,1.547-18.402,1.655-29.712,0.384c-2.262-0.276-4.565-0.6-6.919-0.948c-2.367-0.36-4.616-0.84-6.769-1.44
			c-16.894-4.726-33.851-9.141-50.868-13.232c-2.048-0.504-3.962-1.14-5.749-1.932c-1.79-0.803-3.521-1.512-5.15-2.147
			c-6.925-3.095-11.784-6.538-14.581-10.4c-2.795-3.839-3.971-7.762-3.497-11.769c-0.201-0.287-0.18-0.66,0.049-1.115
			c0.225-0.444,0.342-0.72,0.378-0.84c5.833-8.026,11.744-16.003,17.733-23.944c0.372-0.552,1.335-1.308,2.87-2.268
			c1.532-0.959,2.756-1.655,3.638-2.075c7.533-3.527,16.528-5.398,26.937-5.542C957.36,327.684,968.154,329.088,979.235,332.087z"/>
	</g>
</g>
</svg>
